<?xml version="1.0" encoding="UTF-8"?>
<svg id="Capa_1" xmlns="http://www.w3.org/2000/svg" version="1.1" viewBox="0 0 460.5 460.5">
  <!-- Generator: Adobe Illustrator 30.1.0, SVG Export Plug-In . SVG Version: 2.1.1 Build 136)  -->
  <defs>
    <style>
      .st0 {
        fill: #1d1d1b;
      }
    </style>
  </defs>
  <g>
    <g>
      <path class="st0" d="M173.11,226.2v9.02h-10.74v-17.94h30.67c2.92,0,4.69-1.51,4.69-3.96s-1.83-3.91-4.69-3.91h-30.67l7.25-9.08h22.22c10.12,0,16.64,5.11,16.64,13.04s-6.42,12.83-16.64,12.83h-18.72Z"/>
      <path class="st0" d="M214.01,235.22v-21.54h10.8v12.46h12.57c6.68,0,10.22-3.08,10.22-8.71,0-4.95-3.91-8.03-10.22-8.03h-23.37l6.94-9.08h16.43c12.31,0,21.02,7.09,21.02,17.11s-8.97,17.79-21.02,17.79h-23.37Z"/>
      <path class="st0" d="M263.82,235.22v-34.89h10.8v25.82h27.02l-6.94,9.08h-30.88Z"/>
    </g>
    <g>
      <path class="st0" d="M199.18,243.96l-.29,2.45c-.49-.38-.97-.68-1.46-.87-.49-.2-.97-.29-1.46-.29-.42,0-.75.09-.99.28-.24.18-.35.44-.35.78s.35.89,1.04,1.66c.12.14.21.24.27.3,1.18,1.29,1.93,2.24,2.25,2.86.33.62.49,1.24.49,1.87,0,1.46-.55,2.64-1.66,3.53-1.11.89-2.58,1.34-4.43,1.34-.7,0-1.33-.08-1.9-.25-.57-.17-1-.39-1.29-.66-.16-.17-.27-.34-.34-.53-.07-.19-.1-.48-.1-.87v-2.48c.73.4,1.41.7,2.03.9s1.18.3,1.67.3.92-.11,1.23-.32c.31-.21.47-.49.47-.82,0-.2-.06-.41-.18-.63s-.34-.5-.65-.86c-.12-.13-.29-.32-.52-.57-.77-.86-1.32-1.49-1.64-1.91-.32-.43-.57-.88-.74-1.37-.17-.49-.26-.97-.26-1.46,0-1.27.48-2.31,1.44-3.12s2.21-1.21,3.73-1.21c.69,0,1.34.08,1.95.24.61.16,1.06.36,1.35.59.13.11.22.22.28.34.05.12.08.27.08.44,0,.09,0,.17,0,.21,0,.05,0,.1-.02.15Z"/>
      <path class="st0" d="M211.2,242.2h5.42c-.25.24-.47.59-.64,1.06-.17.47-.32,1.09-.44,1.86l-.47,2.92c.19.01.38.02.59.03s.52,0,.94,0,.71,0,.93,0c.21,0,.41-.01.59-.03l.45-2.92c.06-.44.1-.77.12-1,.02-.23.03-.43.03-.6,0-.28-.03-.52-.08-.73-.05-.21-.14-.41-.26-.58h5.42c-.24.23-.44.57-.61,1.02-.17.46-.31,1.09-.44,1.9l-1.51,9.56c-.05.3-.09.59-.12.87-.03.28-.04.52-.04.72,0,.29.03.54.08.75.05.21.14.4.26.57h-5.42c.25-.23.47-.58.64-1.04.17-.46.32-1.08.44-1.86l.48-3.19c-.42-.02-.73-.03-.94-.04s-.4,0-.58,0c-.33,0-.81.01-1.45.04h-.07l-.49,3.19c-.05.31-.09.6-.11.86-.03.26-.04.5-.04.72,0,.29.03.54.08.75.05.21.14.4.26.57h-5.42c.25-.22.45-.56.62-1.02.16-.45.31-1.08.43-1.88l1.51-9.56c.05-.3.09-.59.12-.87.03-.28.04-.53.04-.75,0-.3-.03-.55-.08-.76-.05-.21-.13-.39-.24-.56Z"/>
      <path class="st0" d="M241.06,241.95c1.97,0,3.5.56,4.58,1.69s1.62,2.71,1.62,4.76c0,1.26-.16,2.43-.49,3.53-.32,1.1-.8,2.08-1.43,2.94-.73,1-1.57,1.74-2.53,2.24s-2.03.75-3.22.75c-1.95,0-3.47-.59-4.54-1.76-1.07-1.18-1.61-2.83-1.61-4.95,0-1.24.19-2.43.58-3.57.39-1.14.96-2.19,1.71-3.16.61-.78,1.38-1.39,2.3-1.82.92-.43,1.93-.64,3.02-.64ZM240.95,245.34c-.44,0-.82.11-1.16.34s-.65.59-.94,1.08c-.34.58-.62,1.33-.84,2.26-.22.93-.33,1.83-.33,2.7s.17,1.55.51,2.01c.34.46.83.69,1.48.69.97,0,1.78-.61,2.41-1.82.64-1.22.95-2.79.95-4.71,0-.86-.17-1.5-.52-1.92s-.86-.64-1.55-.64Z"/>
      <path class="st0" d="M272.58,241.9l-.78,2.46c-.19.61-.48,1.03-.87,1.25-.39.22-1.06.33-2,.33-.22,0-.5,0-.83-.02-.33-.01-.7-.04-1.12-.07l-1.47,9.32c-.04.27-.06.52-.08.76-.02.24-.03.45-.03.64,0,.2.02.38.07.54.04.16.11.31.21.46h-5.36c.25-.21.46-.52.64-.94.18-.41.31-.9.39-1.45l1.49-9.45c-1.46.02-2.56.09-3.3.2-.74.11-1.28.28-1.6.51l.45-2.3c.14-.73.49-1.24,1.03-1.53.54-.29,1.51-.43,2.91-.43.81,0,1.93.03,3.37.09,1.44.06,2.47.09,3.1.09,1.09,0,1.93-.04,2.52-.11.59-.07,1.02-.19,1.28-.36Z"/>
    </g>
  </g>
  <g>
    <path class="st0" d="M336.52,138.69c-1.13-1.98-3.51-2.81-5.59-2.08-20.49-22.56-48.4-37.77-78.68-42.85-30.96-5.19-63,.52-90.23,16.1-13,7.44-24.61,16.9-34.51,28.13-.95-.09-1.89.11-2.72.59-2.23,1.27-3,4.12-1.73,6.35.62,1.08,1.62,1.85,2.82,2.18.41.11.82.17,1.23.17.8,0,1.59-.21,2.3-.62,2.23-1.27,3-4.12,1.73-6.35-.13-.22-.27-.43-.43-.63,9.53-10.67,20.65-19.67,33.05-26.77,53.82-30.78,122.89-19.81,164.54,26.04-.68,1.37-.64,3.01.13,4.37.62,1.08,1.62,1.85,2.82,2.18,1.2.32,2.45.17,3.53-.45,2.23-1.27,3-4.12,1.73-6.35Z"/>
    <path class="st0" d="M366.58,211.44c-1.87-14.85-6.15-29.21-12.71-42.67.44-.84.62-1.79.5-2.73-.16-1.23-.78-2.33-1.76-3.1-.98-.76-2.2-1.1-3.44-.94-2.55.32-4.36,2.65-4.04,5.2.32,2.55,2.66,4.35,5.2,4.04.25-.03.5-.08.75-.16,6.19,12.9,10.23,26.62,12.01,40.8,7.75,61.51-28.92,121.07-87.25,141.92-1.01-1.15-2.54-1.75-4.08-1.56-1.23.16-2.33.78-3.1,1.76-.76.98-1.1,2.2-.94,3.44s.78,2.33,1.76,3.1c.83.64,1.82.98,2.84.98.2,0,.39-.01.59-.04,2.26-.29,3.94-2.16,4.06-4.36,28.7-10.25,53.47-30.18,69.79-56.19,16.69-26.59,23.72-58.37,19.8-89.49Z"/>
    <path class="st0" d="M244.96,360.91c-.42-2.53-2.82-4.24-5.36-3.82-2.1.35-3.63,2.05-3.85,4.08-67.09,2.95-125.87-44.6-136.98-110.95-4.78-28.56-.25-57.23,13.11-82.99.73.25,1.51.33,2.28.2,2.53-.42,4.25-2.83,3.82-5.36-.21-1.23-.88-2.3-1.89-3.02-1.01-.72-2.25-1-3.47-.8-2.53.42-4.25,2.83-3.82,5.36.07.42.2.83.38,1.21-14.03,26.63-18.82,56.35-13.86,85.99,5.57,33.28,23.21,63.2,49.68,84.24,26.12,20.76,58.71,31.25,91.79,29.6.88,1.08,2.2,1.7,3.59,1.7.26,0,.52-.02.77-.06,1.23-.21,2.3-.88,3.02-1.89.72-1.01,1.01-2.25.8-3.47Z"/>
    <path class="st0" d="M340.01,165.19c-6.92-11.96-15.69-22.63-26.1-31.72.07-.88-.13-1.75-.57-2.51-1.21-2.09-3.89-2.8-5.97-1.6-2.09,1.21-2.8,3.89-1.59,5.97,1.21,2.09,3.89,2.8,5.97,1.6.19-.11.37-.23.54-.37,9.86,8.73,18.19,18.93,24.78,30.32,28.62,49.48,18.82,113.2-23.25,151.83-1.28-.61-2.8-.56-4.06.17-1.01.58-1.73,1.53-2.04,2.66-.3,1.13-.14,2.31.44,3.32.81,1.4,2.28,2.18,3.79,2.18.74,0,1.5-.19,2.18-.59,1.84-1.06,2.61-3.27,1.95-5.21,20.72-19.02,34.63-44.84,39.18-72.81,4.66-28.61-.76-58.17-15.26-83.24Z"/>
    <path class="st0" d="M177.53,334.96c-1.84-.71-3.87-.09-5.02,1.41-54.59-29.16-78.93-94.47-56.61-152.33,9.6-24.89,26.64-45.52,49.3-59.7.46.53,1.04.94,1.7,1.2,2.24.87,4.78-.26,5.65-2.51.87-2.25-.26-4.79-2.51-5.65-2.24-.87-4.78.26-5.65,2.51-.14.36-.23.74-.27,1.11-23.65,14.58-41.41,35.94-51.39,61.81-11.21,29.07-11.25,61.14-.1,90.3,11,28.76,31.94,52.41,59.02,66.64.25,1.52,1.28,2.8,2.74,3.37h0c.52.2,1.05.29,1.57.29,1.76,0,3.42-1.07,4.08-2.8.87-2.25-.26-4.79-2.51-5.65Z"/>
  </g>
  <g>
    <path class="st0" d="M178.43,313.59c-12.81,0-24.23-4.18-33.9-12.54-5.08-4.39-9.32-9.29-12.99-15l-.08-.12c-9.97-17.2-15.23-36.86-15.23-56.84,0-21.06,5.81-41.62,16.81-59.47l.09-.14c14.34-20.7,35.98-29.44,59.35-23.98,9.17,2.14,18.11,5.64,28.12,11.01,24.6,13.2,73.17,25.06,99.28,8.6l2.61-1.64,1.71,2.56c12.51,18.69,19.12,40.5,19.12,63.07s-6.82,45.08-19.74,63.98l-1.73,2.53-2.59-1.65c-14.62-9.32-34.94-9.19-49.42-7.44-17.34,2.09-36.16,7.76-50.37,15.17-14.78,7.93-28.58,11.9-41.06,11.9ZM136.91,282.69c3.32,5.16,7.17,9.6,11.76,13.57,21.38,18.49,48.7,10.11,67.86-.17,26.11-13.62,74.57-24.93,103.48-9.06,11.13-17.28,16.99-37.25,16.99-57.94s-5.67-39.97-16.43-57.05c-15.83,8.56-36.27,8.17-51,6.23-18.08-2.38-37.49-8.43-51.95-16.18-9.64-5.17-17.84-8.38-26.57-10.42-20.99-4.91-39.69,2.68-52.66,21.35-10.35,16.83-15.82,36.22-15.82,56.08s4.96,37.38,14.34,53.6Z"/>
    <path class="st0" d="M284.96,164.48h-.26c-21.74-.35-43.03-6.36-66.99-18.91-12.1-6.34-24.95-9.68-40.44-10.52l-11.23-.61,9.89-5.34c16.44-8.87,35.06-13.56,53.85-13.56,32.44,0,63.41,13.93,84.96,38.22l2.6,2.93-3.41,1.93c-9.51,5.38-19.93,5.86-28.97,5.86ZM284.78,158.15c8.86,0,15.95-.59,22.39-3.26-20.18-21.03-48.15-33.02-77.38-33.02-13.96,0-27.81,2.74-40.65,7.98,11.51,1.68,21.72,4.98,31.51,10.1,23.04,12.07,43.42,17.85,64.13,18.18Z"/>
    <path class="st0" d="M229.78,342.64c-19.16,0-38.11-4.87-54.8-14.08l-9.69-5.35,11.05-.58c16.05-.85,29.59-4.4,42.6-11.16,20.78-10.8,41.22-16.46,62.49-17.3h.14c11.65.07,21.38.56,31.69,6l3.6,1.9-2.72,3.02c-21.51,23.87-52.26,37.56-84.37,37.56ZM188.04,327.86c13.14,5.55,27.38,8.44,41.75,8.44,28.87,0,56.59-11.73,76.71-32.32-7.76-3.1-15.65-3.44-24.88-3.5-20.29.81-39.84,6.24-59.75,16.59h0c-10.65,5.54-21.61,9.05-33.83,10.78Z"/>
  </g>
</svg>