<svg xmlns="http://www.w3.org/2000/svg" version="1.1" xmlns:xlink="http://www.w3.org/1999/xlink" width="1000" height="1000"><g clip-path="url(#SvgjsClipPath1226)"><rect width="1000" height="1000" fill="#ffffff"></rect><g transform="matrix(2.1715526601520088,0,0,2.1715526601520088,0,0)"><svg xmlns="http://www.w3.org/2000/svg" version="1.1" xmlns:xlink="http://www.w3.org/1999/xlink" width="460.5" height="460.5"><svg id="Capa_1" xmlns="http://www.w3.org/2000/svg" version="1.1" xmlns:xlink="http://www.w3.org/1999/xlink" viewBox="0 0 460.5 460.5">
  <!-- Generator: Adobe Illustrator 30.1.0, SVG Export Plug-In . SVG Version: 2.1.1 Build 136)  -->
  <defs>
    <style>
      .st0 {
        fill: #fff;
      }

      .st1, .st2 {
        fill: #85cede;
      }

      .st3 {
        fill: url(#Degradado_sin_nombre_54);
      }

      .st4 {
        fill: #f7f6f6;
      }

      .st2 {
        stroke: #86cedf;
        stroke-miterlimit: 10;
        stroke-width: 2px;
      }
    </style>
    <radialGradient id="Degradado_sin_nombre_54" data-name="Degradado sin nombre 54" cx="113.18" cy="113.18" fx="113.18" fy="113.18" r="113.18" gradientTransform="scale(2.03)" gradientUnits="userSpaceOnUse">
      <stop offset="0" stop-color="#41769d"></stop>
      <stop offset=".1" stop-color="#3c6b90"></stop>
      <stop offset=".51" stop-color="#294261"></stop>
      <stop offset=".82" stop-color="#1d2844"></stop>
      <stop offset="1" stop-color="#191f3a"></stop>
    </radialGradient>
  <clipPath id="SvgjsClipPath1226"><rect width="1000" height="1000" x="0" y="0" rx="500" ry="500"></rect></clipPath></defs>
  <rect class="st3" width="460.5" height="460.5"></rect>
  <g>
    <g>
      <path class="st0" d="M173.11,226.2v9.02h-10.74v-17.94h30.67c2.92,0,4.69-1.51,4.69-3.96s-1.83-3.91-4.69-3.91h-30.67l7.25-9.08h22.22c10.12,0,16.64,5.11,16.64,13.04s-6.42,12.83-16.64,12.83h-18.72Z"></path>
      <path class="st0" d="M214.01,235.22v-21.54h10.8v12.46h12.57c6.68,0,10.22-3.08,10.22-8.71,0-4.95-3.91-8.03-10.22-8.03h-23.37l6.94-9.08h16.43c12.31,0,21.02,7.09,21.02,17.11s-8.97,17.79-21.02,17.79h-23.37Z"></path>
      <path class="st0" d="M263.82,235.22v-34.89h10.8v25.82h27.02l-6.94,9.08h-30.88Z"></path>
    </g>
    <g>
      <path class="st4" d="M199.18,243.96l-.29,2.45c-.49-.38-.97-.68-1.46-.87-.49-.2-.97-.29-1.46-.29-.42,0-.75.09-.99.28-.24.18-.35.44-.35.78s.35.89,1.04,1.66c.12.14.21.24.27.3,1.18,1.29,1.93,2.24,2.25,2.86.33.62.49,1.24.49,1.87,0,1.46-.55,2.64-1.66,3.53-1.11.89-2.58,1.34-4.43,1.34-.7,0-1.33-.08-1.9-.25-.57-.17-1-.39-1.29-.66-.16-.17-.27-.34-.34-.53-.07-.19-.1-.48-.1-.87v-2.48c.73.4,1.41.7,2.03.9s1.18.3,1.67.3.92-.11,1.23-.32c.31-.21.47-.49.47-.82,0-.2-.06-.41-.18-.63s-.34-.5-.65-.86c-.12-.13-.29-.32-.52-.57-.77-.86-1.32-1.49-1.64-1.91-.32-.43-.57-.88-.74-1.37-.17-.49-.26-.97-.26-1.46,0-1.27.48-2.31,1.44-3.12s2.21-1.21,3.73-1.21c.69,0,1.34.08,1.95.24.61.16,1.06.36,1.35.59.13.11.22.22.28.34.05.12.08.27.08.44,0,.09,0,.17,0,.21,0,.05,0,.1-.02.15Z"></path>
      <path class="st4" d="M211.2,242.2h5.42c-.25.24-.47.59-.64,1.06-.17.47-.32,1.09-.44,1.86l-.47,2.92c.19.01.38.02.59.03s.52,0,.94,0,.71,0,.93,0c.21,0,.41-.01.59-.03l.45-2.92c.06-.44.1-.77.12-1,.02-.23.03-.43.03-.6,0-.28-.03-.52-.08-.73-.05-.21-.14-.41-.26-.58h5.42c-.24.23-.44.57-.61,1.02-.17.46-.31,1.09-.44,1.9l-1.51,9.56c-.05.3-.09.59-.12.87-.03.28-.04.52-.04.72,0,.29.03.54.08.75.05.21.14.4.26.57h-5.42c.25-.23.47-.58.64-1.04.17-.46.32-1.08.44-1.86l.48-3.19c-.42-.02-.73-.03-.94-.04s-.4,0-.58,0c-.33,0-.81.01-1.45.04h-.07l-.49,3.19c-.05.31-.09.6-.11.86-.03.26-.04.5-.04.72,0,.29.03.54.08.75.05.21.14.4.26.57h-5.42c.25-.22.45-.56.62-1.02.16-.45.31-1.08.43-1.88l1.51-9.56c.05-.3.09-.59.12-.87.03-.28.04-.53.04-.75,0-.3-.03-.55-.08-.76-.05-.21-.13-.39-.24-.56Z"></path>
      <path class="st4" d="M241.06,241.95c1.97,0,3.5.56,4.58,1.69s1.62,2.71,1.62,4.76c0,1.26-.16,2.43-.49,3.53-.32,1.1-.8,2.08-1.43,2.94-.73,1-1.57,1.74-2.53,2.24s-2.03.75-3.22.75c-1.95,0-3.47-.59-4.54-1.76-1.07-1.18-1.61-2.83-1.61-4.95,0-1.24.19-2.43.58-3.57.39-1.14.96-2.19,1.71-3.16.61-.78,1.38-1.39,2.3-1.82.92-.43,1.93-.64,3.02-.64ZM240.95,245.34c-.44,0-.82.11-1.16.34s-.65.59-.94,1.08c-.34.58-.62,1.33-.84,2.26-.22.93-.33,1.83-.33,2.7s.17,1.55.51,2.01c.34.46.83.69,1.48.69.97,0,1.78-.61,2.41-1.82.64-1.22.95-2.79.95-4.71,0-.86-.17-1.5-.52-1.92s-.86-.64-1.55-.64Z"></path>
      <path class="st4" d="M272.58,241.9l-.78,2.46c-.19.61-.48,1.03-.87,1.25-.39.22-1.06.33-2,.33-.22,0-.5,0-.83-.02-.33-.01-.7-.04-1.12-.07l-1.47,9.32c-.04.27-.06.52-.08.76-.02.24-.03.45-.03.64,0,.2.02.38.07.54.04.16.11.31.21.46h-5.36c.25-.21.46-.52.64-.94.18-.41.31-.9.39-1.45l1.49-9.45c-1.46.02-2.56.09-3.3.2-.74.11-1.28.28-1.6.51l.45-2.3c.14-.73.49-1.24,1.03-1.53.54-.29,1.51-.43,2.91-.43.81,0,1.93.03,3.37.09,1.44.06,2.47.09,3.1.09,1.09,0,1.93-.04,2.52-.11.59-.07,1.02-.19,1.28-.36Z"></path>
    </g>
  </g>
  <g>
    <path class="st2" d="M335.65,139.19c-1-1.75-3.22-2.36-4.97-1.36-41.75-46.49-111.78-59.35-168.16-27.1-13.41,7.67-24.98,17.31-34.62,28.33-.86-.19-1.79-.09-2.61.38-1.75,1-2.36,3.23-1.36,4.99,1,1.75,3.23,2.36,4.99,1.36,1.75-1,2.36-3.23,1.36-4.99-.25-.43-.57-.79-.94-1.08,9.48-10.76,20.82-20.18,33.94-27.68,55.76-31.89,124.99-19.18,166.28,26.79-.84,1.13-.98,2.69-.24,3.99,1,1.75,3.23,2.36,4.99,1.36,1.75-1,2.36-3.23,1.36-4.99Z"></path>
    <path class="st2" d="M272.8,360.49c2-.25,3.41-2.07,3.17-4.07,58.96-20.69,97.73-80.4,89.62-144.85-1.93-15.32-6.39-29.71-12.86-42.85.51-.72.77-1.62.65-2.56-.25-2-2.08-3.42-4.08-3.17-2,.25-3.42,2.08-3.17,4.08.25,2,2.08,3.42,4.08,3.17.49-.06.95-.22,1.36-.45,6.29,12.88,10.63,26.97,12.52,41.97,8.03,63.73-30.31,122.77-88.61,143.23-.72-1.21-2.11-1.94-3.59-1.75-2,.25-3.42,2.08-3.17,4.08.25,2,2.08,3.42,4.08,3.17Z"></path>
    <path class="st2" d="M240.97,365.28c1.99-.33,3.33-2.22,3-4.21s-2.22-3.33-4.21-3c-1.94.32-3.25,2.12-3.01,4.05-67.02,3.41-127.62-43.98-138.96-111.74-5.03-30.03.44-59.41,13.65-84.47.73.46,1.63.68,2.55.53,1.99-.33,3.33-2.22,3-4.21-.33-1.99-2.22-3.33-4.21-3-1.99.33-3.33,2.22-3,4.21.08.5.27.96.52,1.36-13.52,25.43-19.12,55.3-14.01,85.83,11.49,68.67,73.02,116.66,140.97,112.97.76,1.22,2.2,1.93,3.7,1.67Z"></path>
    <path class="st2" d="M313.65,325.58c1.61-.93,2.16-2.98,1.24-4.59,42.71-38.73,54.27-103.41,24.26-155.3-7.14-12.34-16.09-22.97-26.3-31.82.17-.79.07-1.65-.36-2.41-.93-1.61-3-2.16-4.61-1.23-1.61.93-2.16,3-1.23,4.61.93,1.61,3,2.16,4.61,1.23.4-.23.73-.53.99-.87,9.97,8.7,18.71,19.12,25.69,31.19,29.68,51.31,18.25,115.26-23.98,153.56-1.05-.77-2.49-.9-3.68-.2-1.61.93-2.16,3-1.23,4.61.93,1.61,3,2.16,4.61,1.23Z"></path>
    <path class="st2" d="M174.74,342.19c1.74.67,3.69-.2,4.36-1.93.67-1.74-.2-3.69-1.93-4.36-1.69-.65-3.58.16-4.29,1.8-54.84-28.76-80.73-94.87-57.92-154.02,10.11-26.22,28.25-46.99,50.51-60.69.36.71.97,1.31,1.78,1.62,1.74.67,3.69-.2,4.36-1.93.67-1.74-.2-3.69-1.93-4.36s-3.69.2-4.36,1.93c-.17.44-.24.89-.22,1.33-22.68,13.85-41.16,34.95-51.44,61.6-23.12,59.94,3.22,126.96,58.93,155.94.03,1.32.84,2.56,2.16,3.07Z"></path>
  </g>
  <g>
    <path class="st1" d="M178.43,313.59c-12.81,0-24.23-4.18-33.9-12.54-5.08-4.39-9.32-9.29-12.99-15l-.08-.12c-9.97-17.2-15.23-36.86-15.23-56.84,0-21.06,5.81-41.62,16.81-59.47l.09-.14c14.34-20.7,35.98-29.44,59.35-23.98,9.17,2.14,18.11,5.64,28.12,11.01,24.6,13.2,73.17,25.06,99.28,8.6l2.61-1.64,1.71,2.56c12.51,18.69,19.12,40.5,19.12,63.07s-6.82,45.08-19.74,63.98l-1.73,2.53-2.59-1.65c-14.62-9.32-34.94-9.19-49.42-7.44-17.34,2.09-36.16,7.76-50.37,15.17-14.78,7.93-28.58,11.9-41.06,11.9ZM136.91,282.69c3.32,5.16,7.17,9.6,11.76,13.57,21.38,18.49,48.7,10.11,67.86-.17,26.11-13.62,74.57-24.93,103.48-9.06,11.13-17.28,16.99-37.25,16.99-57.94s-5.67-39.97-16.43-57.05c-15.83,8.56-36.27,8.17-51,6.23-18.08-2.38-37.49-8.43-51.95-16.18-9.64-5.17-17.84-8.38-26.57-10.42-20.99-4.91-39.69,2.68-52.66,21.35-10.35,16.83-15.82,36.22-15.82,56.08s4.96,37.38,14.34,53.6Z"></path>
    <path class="st1" d="M284.96,164.48h-.26c-21.74-.35-43.03-6.36-66.99-18.91-12.1-6.34-24.95-9.68-40.44-10.52l-11.23-.61,9.89-5.34c16.44-8.87,35.06-13.56,53.85-13.56,32.44,0,63.41,13.93,84.96,38.22l2.6,2.93-3.41,1.93c-9.51,5.38-19.93,5.86-28.97,5.86ZM284.78,158.15c8.86,0,15.95-.59,22.39-3.26-20.18-21.03-48.15-33.02-77.38-33.02-13.96,0-27.81,2.74-40.65,7.98,11.51,1.68,21.72,4.98,31.51,10.1,23.04,12.07,43.42,17.85,64.13,18.18Z"></path>
    <path class="st1" d="M229.78,342.64c-19.16,0-38.11-4.87-54.8-14.08l-9.69-5.35,11.05-.58c16.05-.85,29.59-4.4,42.6-11.16,20.78-10.8,41.22-16.46,62.49-17.3h.14c11.65.07,21.38.56,31.69,6l3.6,1.9-2.72,3.02c-21.51,23.87-52.26,37.56-84.37,37.56ZM188.04,327.86c13.14,5.55,27.38,8.44,41.75,8.44,28.87,0,56.59-11.73,76.71-32.32-7.76-3.1-15.65-3.44-24.88-3.5-20.29.81-39.84,6.24-59.75,16.59h0c-10.65,5.54-21.61,9.05-33.83,10.78Z"></path>
  </g>
</svg></svg></g></g></svg>